<svg width="392" height="64" viewBox="0 0 392 64" fill="none" xmlns="http://www.w3.org/2000/svg">
<path d="M84 0L112 16V48L84 64L56 48V16L84 0Z" fill="#484848"/>
<path d="M252 0L280 16V48L252 64L224 48V16L252 0Z" fill="#828181"/>
<path d="M196 0L224 16V48L196 64L168 48V16L196 0Z" fill="#513622"/>
<path d="M364 0L392 16V48L364 64L336 48V16L364 0Z" fill="#74483B"/>
<path fill-rule="evenodd" clip-rule="evenodd" d="M390.268 15L383.304 19.0622L378.108 16.0622L385.072 12L383.34 11L371.401 17.9637L366.205 14.9637L378.144 8L376.412 7L369.447 11.0622L364.251 8.06218L371.215 4L369.483 3L357.545 9.96373L352.347 6.96262L350.359 8.12435L355.555 11.1244L341.656 19.2319L336 16V18L343 22V28L336 24V26L348 32.8571V38.8571L336 32V34L343 38V44L336 40V42L348 48.8571V54.8594L350 56V50L364 58L378 50V56L380 54.8594V48.8571L392 42V40L385 44V38L392 34V32L380 38.8571V32.8571L392 26V24L385 28V22L392 18V16L390.268 15ZM364 56L372 51.4286V45.5L372.4 45.2L364 50L355.6 45.2L356 45.5V51.4286L364 56ZM364 48L378 40V34L364 42L350 34V40L364 48ZM364 40L372 35.4286V29.5L372.4 29.2L364 34L355.6 29.2L356 29.5V35.4286L364 40ZM348.62 23.2112L343.397 20.2267L351.318 15.6062L356.452 18.5705L356.912 18.3741L348.62 23.2112ZM355.583 27.1904L350.36 24.206L364.215 16.1244L369.412 19.1244L355.583 27.1904ZM362.547 31.1697L357.324 28.1852L365.174 23.6062L370.309 26.5705L370.768 26.3741L362.547 31.1697ZM358.504 17.4456L353.308 14.4456L362.262 9.2228L367.458 12.2228L358.504 17.4456ZM372.36 25.4456L381.314 20.2228L376.118 17.2228L367.164 22.4456L372.36 25.4456ZM354 44.2857V50.2857L345 45.1429V39.1429L354 44.2857ZM354 28.2857L345 23.1429V29.1429L354 34.2857V28.2857ZM374 50.2857V44.2857L383 39.1429V45.1429L374 50.2857ZM383 23.1429L374 28.2857V34.2857L383 29.1429V23.1429Z" fill="#767575"/>
<path d="M168 20L164.5 24H161.5L159 30L157 28L154.5 32L152.5 28L151 32L149.5 28.5L148 36L146.5 33.5L145 36L142.5 34.5L141 38L140 35L137.5 37L133.5 32L130.5 36L128.5 31.5L127 33.5L125.5 28L123 28.5L121.5 24L120 28.5L114.5 21L112 22.5V48L140 64L168 48L168 20Z" fill="#513622"/>
<path d="M168 16L140 0L112 16V22.5L114.5 21L120 28.5L121.5 24L123 28.5L125.5 28L127 33.5L128.5 31.5L130.5 36L133.5 32L137.5 37L140 35L141 38L142.5 34.5L145 36L146.5 33.5L148 36L149.5 28.5L151 32L152.5 28L154.5 32L157 28L159 30L161.5 24H164.5L168 20V16Z" fill="#3D6328"/>
<path d="M308 0L336 16V48L308 64L280 48V16L308 0Z" fill="#7C653B"/>
<path d="M302.732 3L330.453 19.1697L336 16V18L308 34L280 18V16L281.732 15L309.453 31.1697L314.712 28.1645L287 12L288.732 11L316.453 27.1697L321.712 24.1645L294 8L295.732 7L323.453 23.1697L328.712 20.1645L301 4L302.732 3Z" fill="#4B3D25"/>
<path d="M280 24V26L308 42L336 26V24L308 40L280 24Z" fill="#4B3D25"/>
<path d="M280 34V32L308 48L336 32V34L308 50L280 34Z" fill="#4B3D25"/>
<path d="M280 40V42L308 58L336 42V40L308 56L280 40Z" fill="#4B3D25"/>
</svg>
